HIERARCHY
ROOT pelvis
{
  OFFSET 0 100 0
  CHANNELS 6 Xposition Yposition Zposition Zrotation Xrotation Yrotation
  JOINT pelvis_right_femur
  {
    OFFSET -10.78128 -3.44521 -0.5502486
    CHANNELS 3 Zrotation Xrotation Yrotation
    JOINT right_femur_tibia
    {
      OFFSET -0.8047443 -44.0398 -0.1307829
      CHANNELS 3 Zrotation Xrotation Yrotation
      JOINT right_tibia_foot
      {
        OFFSET 3.006224 -47.83518 -5
        CHANNELS 3 Zrotation Xrotation Yrotation
        End Site
        {
          OFFSET 0 -5 15
        }
      }
    }
  }
  JOINT pelvis_left_femur
  {
    OFFSET 10.78128 -3.44521 -0.5502486
    CHANNELS 3 Zrotation Xrotation Yrotation
    JOINT left_femur_tibia
    {
      OFFSET 0.8047443 -44.0398 -0.1307829
      CHANNELS 3 Zrotation Xrotation Yrotation
      JOINT left_tibia_foot
      {
        OFFSET -4.370144 -48.10324 -4.275266
        CHANNELS 3 Zrotation Xrotation Yrotation
        End Site
        {
          OFFSET 0 -5 15
        }
      }
    }
  }
  JOINT pelvis_spine1
  {
    OFFSET 0 6.468898 -3.129235
    CHANNELS 3 Zrotation Xrotation Yrotation
    JOINT spine1
    {
      OFFSET 0 23.15396 4.99043
      CHANNELS 3 Zrotation Xrotation Yrotation
      JOINT spine2
      {
        OFFSET 0 20.79997 -5.064912
        CHANNELS 3 Zrotation Xrotation Yrotation
        JOINT neck
        {
          OFFSET 0 14.38658 9.616178
          CHANNELS 3 Zrotation Xrotation Yrotation
          End Site
          {
            OFFSET 0 20 0
          }
        }
      }
      JOINT right_manubrium
      {
        OFFSET -5.722621 16.35077 3.967754
        CHANNELS 3 Zrotation Xrotation Yrotation
        JOINT right_clavicle
        {
          OFFSET -13.16364 1.694482 -4.693211
          CHANNELS 3 Zrotation Xrotation Yrotation
          JOINT right_humerus
          {
            OFFSET -28.5034 -0.3100689 -2.792744
            CHANNELS 3 Zrotation Xrotation Yrotation
            JOINT right_radius
            {
              OFFSET -25.15693 0.02248979 -1.271978
              CHANNELS 3 Zrotation Xrotation Yrotation
              End Site
              {
                OFFSET -15 0 0
              }
            }
          }
        }
      }
      JOINT left_manubrium
      {
        OFFSET 5.722621 16.35077 3.967754
        CHANNELS 3 Zrotation Xrotation Yrotation
        JOINT left_clavicle
        {
          OFFSET 13.16364 1.694482 -4.693211
          CHANNELS 3 Zrotation Xrotation Yrotation
          JOINT left_humerus
          {
            OFFSET 29.39168 -1.063119 -2.237045
            CHANNELS 3 Zrotation Xrotation Yrotation
            JOINT left_radius
            {
              OFFSET 24.59957 -0.9528479 0.9047498
              CHANNELS 3 Zrotation Xrotation Yrotation
              End Site
              {
                OFFSET 15 -0 -0
              }
            }
          }
        }
      }
    }
  }
}
MOTION
Frames: 21
Frame Time: 0.0416666666667
-877.8754 154.2177 1088.46 4.642348 8.959892 158.133 5.83065 13.45761 -0.26155 -0 17.67849 -0 -10.44824 -4.26058 0.1213284 3.117266 -13.33948 -3.225955 -0 10.18043 -0 1.762766 -1.527979 15.01726 1.640009 -4.38804 7.464677 0.06517875 17.98289 -5.707477 0.6115552 18.80634 2.998862 1.545473 -18.04603 3.628284 -0.813853 -31.38911 13.67774 89.14655 15.43286 -11.19198 -0 0 28.14282 -26.56681 16.18323 15.85793 3.285224 -24.04354 -8.538011 -93.29046 7.062267 36.66153 0 0 -9.38017 8.663137 14.52622 2.614993
-876.7206 154.1161 1082.347 4.743865 8.906875 157.4792 5.83065 13.45761 -0.26155 -0 17.67849 -0 -10.44824 -4.26058 0.1213284 3.117266 -13.33948 -3.225955 -0 10.18043 -0 1.762766 -1.527979 15.01726 1.640009 -4.38804 7.464677 0.06517875 17.98289 -5.707477 0.6115552 18.80634 2.998862 1.545473 -18.04603 3.628284 -0.813853 -31.38911 13.67774 89.14655 15.43286 -11.19198 -0 0 28.14282 -26.56681 16.18323 15.85793 3.285224 -24.04354 -8.538011 -93.29046 7.062267 36.66153 0 0 -9.38017 8.663137 14.52622 2.614993
-875.4968 154.0144 1076.248 4.844748 8.852717 156.8257 5.83065 13.45761 -0.26155 -0 17.67849 -0 -10.44824 -4.26058 0.1213284 3.117266 -13.33948 -3.225955 -0 10.18043 -0 1.762766 -1.527979 15.01726 1.640009 -4.38804 7.464677 0.06517875 17.98289 -5.707477 0.6115552 18.80634 2.998862 1.545473 -18.04603 3.628284 -0.813853 -31.38911 13.67774 89.14655 15.43286 -11.19198 -0 0 28.14282 -26.56681 16.18323 15.85793 3.285224 -24.04354 -8.538011 -93.29046 7.062267 36.66153 0 0 -9.38017 8.663137 14.52622 2.614993
-874.2041 153.9128 1070.163 4.944985 8.797426 156.1724 5.83065 13.45761 -0.26155 -0 17.67849 -0 -10.44824 -4.26058 0.1213284 3.117266 -13.33948 -3.225955 -0 10.18043 -0 1.762766 -1.527979 15.01726 1.640009 -4.38804 7.464677 0.06517875 17.98289 -5.707477 0.6115552 18.80634 2.998862 1.545473 -18.04603 3.628284 -0.813853 -31.38911 13.67774 89.14655 15.43286 -11.19198 -0 0 28.14282 -26.56681 16.18323 15.85793 3.285224 -24.04354 -8.538011 -93.29046 7.062267 36.66153 0 0 -9.38017 8.663137 14.52622 2.614993
-872.8427 153.8112 1064.092 5.044562 8.74101 155.5192 5.83065 13.45761 -0.26155 -0 17.67849 -0 -10.44824 -4.26058 0.1213284 3.117266 -13.33948 -3.225955 -0 10.18043 -0 1.762766 -1.527979 15.01726 1.640009 -4.38804 7.464677 0.06517875 17.98289 -5.707477 0.6115552 18.80634 2.998862 1.545473 -18.04603 3.628284 -0.813853 -31.38911 13.67774 89.14655 15.43286 -11.19198 -0 0 28.14282 -26.56681 16.18323 15.85793 3.285224 -24.04354 -8.538011 -93.29046 7.062267 36.66153 0 0 -9.38017 8.663137 14.52622 2.614993
-871.4126 153.7096 1058.038 5.143468 8.683475 154.8662 5.83065 13.45761 -0.26155 -0 17.67849 -0 -10.44824 -4.26058 0.1213284 3.117266 -13.33948 -3.225955 -0 10.18043 -0 1.762766 -1.527979 15.01726 1.640009 -4.38804 7.464677 0.06517875 17.98289 -5.707477 0.6115552 18.80634 2.998862 1.545473 -18.04603 3.628284 -0.813853 -31.38911 13.67774 89.14655 15.43286 -11.19198 -0 0 28.14282 -26.56681 16.18323 15.85793 3.285224 -24.04354 -8.538011 -93.29046 7.062267 36.66153 0 0 -9.38017 8.663137 14.52622 2.614993
-869.9143 153.608 1052 5.241688 8.62483 154.2135 5.83065 13.45761 -0.26155 -0 17.67849 -0 -10.44824 -4.26058 0.1213284 3.117266 -13.33948 -3.225955 -0 10.18043 -0 1.762766 -1.527979 15.01726 1.640009 -4.38804 7.464677 0.06517875 17.98289 -5.707477 0.6115552 18.80634 2.998862 1.545473 -18.04603 3.628284 -0.813853 -31.38911 13.67774 89.14655 15.43286 -11.19198 -0 0 28.14282 -26.56681 16.18323 15.85793 3.285224 -24.04354 -8.538011 -93.29046 7.062267 36.66153 0 0 -9.38017 8.663137 14.52622 2.614993
-868.3477 153.5064 1045.98 5.339211 8.565083 153.561 5.83065 13.45761 -0.26155 -0 17.67849 -0 -10.44824 -4.26058 0.1213284 3.117266 -13.33948 -3.225955 -0 10.18043 -0 1.762766 -1.527979 15.01726 1.640009 -4.38804 7.464677 0.06517875 17.98289 -5.707477 0.6115552 18.80634 2.998862 1.545473 -18.04603 3.628284 -0.813853 -31.38911 13.67774 89.14655 15.43286 -11.19198 -0 0 28.14282 -26.56681 16.18323 15.85793 3.285224 -24.04354 -8.538011 -93.29046 7.062267 36.66153 0 0 -9.38017 8.663137 14.52622 2.614993
-866.7131 153.4047 1039.978 5.436024 8.504242 152.9086 5.83065 13.45761 -0.26155 -0 17.67849 -0 -10.44824 -4.26058 0.1213284 3.117266 -13.33948 -3.225955 -0 10.18043 -0 1.762766 -1.527979 15.01726 1.640009 -4.38804 7.464677 0.06517875 17.98289 -5.707477 0.6115552 18.80634 2.998862 1.545473 -18.04603 3.628284 -0.813853 -31.38911 13.67774 89.14655 15.43286 -11.19198 -0 0 28.14282 -26.56681 16.18323 15.85793 3.285224 -24.04354 -8.538011 -93.29046 7.062267 36.66153 0 0 -9.38017 8.663137 14.52622 2.614993
-865.0108 153.3031 1033.994 5.532115 8.442314 152.2565 5.83065 13.45761 -0.26155 -0 17.67849 -0 -10.44824 -4.26058 0.1213284 3.117266 -13.33948 -3.225955 -0 10.18043 -0 1.762766 -1.527979 15.01726 1.640009 -4.38804 7.464677 0.06517875 17.98289 -5.707477 0.6115552 18.80634 2.998862 1.545473 -18.04603 3.628284 -0.813853 -31.38911 13.67774 89.14655 15.43286 -11.19198 -0 0 28.14282 -26.56681 16.18323 15.85793 3.285224 -24.04354 -8.538011 -93.29046 7.062267 36.66153 0 0 -9.38017 8.663137 14.52622 2.614993
-863.2409 153.2015 1028.031 5.627472 8.37931 151.6046 5.83065 13.45761 -0.26155 -0 17.67849 -0 -10.44824 -4.26058 0.1213284 3.117266 -13.33948 -3.225955 -0 10.18043 -0 1.762766 -1.527979 15.01726 1.640009 -4.38804 7.464677 0.06517875 17.98289 -5.707477 0.6115552 18.80634 2.998862 1.545473 -18.04603 3.628284 -0.813853 -31.38911 13.67774 89.14655 15.43286 -11.19198 -0 0 28.14282 -26.56681 16.18323 15.85793 3.285224 -24.04354 -8.538011 -93.29046 7.062267 36.66153 0 0 -9.38017 8.663137 14.52622 2.614993
-861.4037 153.0999 1022.087 5.722083 8.315236 150.9529 5.83065 13.45761 -0.26155 -0 17.67849 -0 -10.44824 -4.26058 0.1213284 3.117266 -13.33948 -3.225955 -0 10.18043 -0 1.762766 -1.527979 15.01726 1.640009 -4.38804 7.464677 0.06517875 17.98289 -5.707477 0.6115552 18.80634 2.998862 1.545473 -18.04603 3.628284 -0.813853 -31.38911 13.67774 89.14655 15.43286 -11.19198 -0 0 28.14282 -26.56681 16.18323 15.85793 3.285224 -24.04354 -8.538011 -93.29046 7.062267 36.66153 0 0 -9.38017 8.663137 14.52622 2.614993
-859.4993 152.9983 1016.165 5.815935 8.250102 150.3014 5.83065 13.45761 -0.26155 -0 17.67849 -0 -10.44824 -4.26058 0.1213284 3.117266 -13.33948 -3.225955 -0 10.18043 -0 1.762766 -1.527979 15.01726 1.640009 -4.38804 7.464677 0.06517875 17.98289 -5.707477 0.6115552 18.80634 2.998862 1.545473 -18.04603 3.628284 -0.813853 -31.38911 13.67774 89.14655 15.43286 -11.19198 -0 0 28.14282 -26.56681 16.18323 15.85793 3.285224 -24.04354 -8.538011 -93.29046 7.062267 36.66153 0 0 -9.38017 8.663137 14.52622 2.614993
-857.5282 152.8967 1010.265 5.909018 8.183916 149.6501 5.83065 13.45761 -0.26155 -0 17.67849 -0 -10.44824 -4.26058 0.1213284 3.117266 -13.33948 -3.225955 -0 10.18043 -0 1.762766 -1.527979 15.01726 1.640009 -4.38804 7.464677 0.06517875 17.98289 -5.707477 0.6115552 18.80634 2.998862 1.545473 -18.04603 3.628284 -0.813853 -31.38911 13.67774 89.14655 15.43286 -11.19198 -0 0 28.14282 -26.56681 16.18323 15.85793 3.285224 -24.04354 -8.538011 -93.29046 7.062267 36.66153 0 0 -9.38017 8.663137 14.52622 2.614993
-855.4904 152.7951 1004.387 6.00132 8.116687 148.999 5.83065 13.45761 -0.26155 -0 17.67849 -0 -10.44824 -4.26058 0.1213284 3.117266 -13.33948 -3.225955 -0 10.18043 -0 1.762766 -1.527979 15.01726 1.640009 -4.38804 7.464677 0.06517875 17.98289 -5.707477 0.6115552 18.80634 2.998862 1.545473 -18.04603 3.628284 -0.813853 -31.38911 13.67774 89.14655 15.43286 -11.19198 -0 0 28.14282 -26.56681 16.18323 15.85793 3.285224 -24.04354 -8.538011 -93.29046 7.062267 36.66153 0 0 -9.38017 8.663137 14.52622 2.614993
-853.3863 152.6934 998.5328 6.092828 8.048425 148.3482 5.83065 13.45761 -0.26155 -0 17.67849 -0 -10.44824 -4.26058 0.1213284 3.117266 -13.33948 -3.225955 -0 10.18043 -0 1.762766 -1.527979 15.01726 1.640009 -4.38804 7.464677 0.06517875 17.98289 -5.707477 0.6115552 18.80634 2.998862 1.545473 -18.04603 3.628284 -0.813853 -31.38911 13.67774 89.14655 15.43286 -11.19198 -0 0 28.14282 -26.56681 16.18323 15.85793 3.285224 -24.04354 -8.538011 -93.29046 7.062267 36.66153 0 0 -9.38017 8.663137 14.52622 2.614993
-851.2161 152.5918 992.7027 6.183533 7.979138 147.6976 5.83065 13.45761 -0.26155 -0 17.67849 -0 -10.44824 -4.26058 0.1213284 3.117266 -13.33948 -3.225955 -0 10.18043 -0 1.762766 -1.527979 15.01726 1.640009 -4.38804 7.464677 0.06517875 17.98289 -5.707477 0.6115552 18.80634 2.998862 1.545473 -18.04603 3.628284 -0.813853 -31.38911 13.67774 89.14655 15.43286 -11.19198 -0 0 28.14282 -26.56681 16.18323 15.85793 3.285224 -24.04354 -8.538011 -93.29046 7.062267 36.66153 0 0 -9.38017 8.663137 14.52622 2.614993
-848.9801 152.4902 986.8976 6.273421 7.908836 147.0472 5.83065 13.45761 -0.26155 -0 17.67849 -0 -10.44824 -4.26058 0.1213284 3.117266 -13.33948 -3.225955 -0 10.18043 -0 1.762766 -1.527979 15.01726 1.640009 -4.38804 7.464677 0.06517875 17.98289 -5.707477 0.6115552 18.80634 2.998862 1.545473 -18.04603 3.628284 -0.813853 -31.38911 13.67774 89.14655 15.43286 -11.19198 -0 0 28.14282 -26.56681 16.18323 15.85793 3.285224 -24.04354 -8.538011 -93.29046 7.062267 36.66153 0 0 -9.38017 8.663137 14.52622 2.614993
-846.6786 152.3886 981.1181 6.362483 7.837528 146.397 5.83065 13.45761 -0.26155 -0 17.67849 -0 -10.44824 -4.26058 0.1213284 3.117266 -13.33948 -3.225955 -0 10.18043 -0 1.762766 -1.527979 15.01726 1.640009 -4.38804 7.464677 0.06517875 17.98289 -5.707477 0.6115552 18.80634 2.998862 1.545473 -18.04603 3.628284 -0.813853 -31.38911 13.67774 89.14655 15.43286 -11.19198 -0 0 28.14282 -26.56681 16.18323 15.85793 3.285224 -24.04354 -8.538011 -93.29046 7.062267 36.66153 0 0 -9.38017 8.663137 14.52622 2.614993
-844.3119 152.287 975.365 6.450707 7.765224 145.7471 5.83065 13.45761 -0.26155 -0 17.67849 -0 -10.44824 -4.26058 0.1213284 3.117266 -13.33948 -3.225955 -0 10.18043 -0 1.762766 -1.527979 15.01726 1.640009 -4.38804 7.464677 0.06517875 17.98289 -5.707477 0.6115552 18.80634 2.998862 1.545473 -18.04603 3.628284 -0.813853 -31.38911 13.67774 89.14655 15.43286 -11.19198 -0 0 28.14282 -26.56681 16.18323 15.85793 3.285224 -24.04354 -8.538011 -93.29046 7.062267 36.66153 0 0 -9.38017 8.663137 14.52622 2.614993
-841.8803 152.1854 969.639 6.538083 7.691933 145.0974 5.83065 13.45761 -0.26155 -0 17.67849 -0 -10.44824 -4.26058 0.1213284 3.117266 -13.33948 -3.225955 -0 10.18043 -0 1.762766 -1.527979 15.01726 1.640009 -4.38804 7.464677 0.06517875 17.98289 -5.707477 0.6115552 18.80634 2.998862 1.545473 -18.04603 3.628284 -0.813853 -31.38911 13.67774 89.14655 15.43286 -11.19198 -0 0 28.14282 -26.56681 16.18323 15.85793 3.285224 -24.04354 -8.538011 -93.29046 7.062267 36.66153 0 0 -9.38017 8.663137 14.52622 2.614993
